<?xml version="1.0" encoding="UTF-8" standalone="no"?>
<!-- Created with Inkscape (http://www.inkscape.org/) -->

<svg
   version="1.1"
   id="svg1"
   width="1301.3333"
   height="1453.3333"
   viewBox="0 0 1301.3333 1453.3333"
   xmlns="http://www.w3.org/2000/svg"
   xmlns:svg="http://www.w3.org/2000/svg">
  <style id="logo-theme">svg{color:#000000}</style>
  <defs
     id="defs1" />
  <g
     id="g1">
    <path
       fill="currentColor"
       d="m 258.66665,1441.9822 c 0,-0.2373 4.05,-1.7769 9,-3.4212 45.11562,-14.987 100.20157,-45.4838 140.99999,-78.0606 19.98487,-15.9576 64.48087,-60.6916 85.37724,-85.8338 61.52062,-74.0208 91.17128,-103.0722 131.33789,-128.6833 19.00022,-12.115 45.40166,-24.8414 64.63808,-31.1577 40.77791,-13.3897 69.95869,-15.0961 138.78239,-8.1158 53.32901,5.4087 65.44776,6.0075 81.27393,4.0154 23.54613,-2.9637 38.89563,-9.1161 50.77573,-20.3517 14.4182,-13.6362 19.8697,-27.0151 18.8423,-46.2425 -0.716,-13.4007 -3.9755,-21.7202 -13.3787,-34.1479 -8.2726,-10.93346 -17.554,-17.44233 -44.23891,-31.02367 -19.93458,-10.14578 -23.91117,-12.73107 -32.1999,-20.93405 -16.21561,-16.04788 -22.55854,-34.8957 -19.77733,-58.7677 l 1.23392,-10.59106 16,0.45772 c 8.8,0.25174 16.40375,0.85174 16.89722,1.33333 0.49347,0.48159 0.28127,4.17561 -0.47156,8.20895 -0.75283,4.03333 -1.03085,10.63909 -0.61783,14.67946 2.12086,20.74737 13.37843,34.42565 40.64339,49.38296 24.4285,13.40124 37.3478,23.63622 46.3458,36.71647 l 5.203,7.56339 0.8117,-26.50449 c 1.248,-40.74607 5.8445,-62.24804 18.6349,-87.17113 12.4439,-24.24786 34.8386,-49.36652 61.7912,-69.30686 13.5365,-10.01475 15.7936,-11.48081 44.3718,-28.82125 11.1519,-6.76669 24.7817,-15.69392 30.2882,-19.83829 32.3209,-24.32537 42.5689,-57.78435 27.9245,-91.17129 -4.2561,-9.70333 -10.7262,-18.27444 -26.4872,-35.08828 -14.0577,-14.9968 -20.2236,-23.93744 -25.4756,-36.94015 -5.127,-12.69316 -5.737,-21.70343 -3.7577,-55.50052 0.9878,-16.86667 3.0121,-53.76667 4.4983,-82 1.4863,-28.23333 3.074,-57.18333 3.5282,-64.33333 l 0.826,-13 h 7.1895 c 6.7538,0 7.1895,0.19931 7.1895,3.28849 0,1.80866 0.6045,13.65866 1.3434,26.33333 0.7389,12.67466 2.8636,52.87268 4.7216,89.32891 4.2914,84.20528 2.2996,77.29052 30.6438,106.38259 19.4419,19.95479 28.4525,31.70384 35.2785,46 11.9544,25.03705 13.5787,51.59324 4.7148,77.08154 -4.5357,13.04223 -10.5201,22.37274 -22.5444,35.14954 -13.8001,14.66378 -26.4801,22.89457 -61.0671,39.63975 -32.6083,15.78725 -51.6513,26.72795 -64.6746,37.15729 -22.52,18.03449 -38.1431,40.37659 -47.6926,68.20376 -6.4175,18.70067 -8.7427,34.86352 -10.7562,74.76809 -1.036,20.5333 -2.7428,41.248 -3.7929,46.0326 -2.6686,12.1595 -9.2621,28.6645 -14.8145,37.0838 -2.5812,3.914 -4.6931,7.3992 -4.6931,7.7448 0,0.3457 3.5565,-1.2671 7.9033,-3.5839 11.4994,-6.1291 24.3005,-17.2166 31.4578,-27.2467 10.791,-15.1222 14.1184,-27.0409 17.2685,-61.85513 4.5057,-49.79705 15.6034,-80.60533 36.6029,-101.61313 15.2492,-15.25532 29.587,-21.22899 50.9531,-21.22899 24.3359,0 42.8966,10.28418 52.2523,28.95213 5.0642,10.10493 6.6281,16.19791 7.4558,29.04787 l 0.7729,12 5.1043,0.42003 c 4.3797,0.36041 5.3734,1.0641 7,4.95718 1.0426,2.49542 1.8957,6.65641 1.8957,9.24663 0,5.18312 -0.2437,5.08431 11.6606,4.72678 15.7676,-0.47357 27.6722,6.56291 30.9259,18.2796 0.9251,3.3313 1.3913,42.50383 1.3768,115.70313 -0.021,104.1694 -0.1644,110.9804 -2.4499,116.0114 -3.1531,6.9406 -10.8095,13.5873 -17.1515,14.8895 -2.7657,0.5679 -27.257,0.9717 -54.4252,0.8973 -46.7595,-0.128 -49.6781,-0.2788 -54.6667,-2.8249 -6.4308,-3.282 -9.2078,-6.2367 -11.8858,-12.646 -1.7904,-4.285 -2.0508,-19.1434 -2.0508,-116.994 0,-121.28261 -0.2248,-117.30256 7.0636,-125.10848 5.0243,-5.38111 9.5102,-6.89041 20.5368,-6.90971 15.5781,-0.0273 16.3996,-0.42001 16.3996,-7.84063 0,-8.6032 2.7417,-12.14117 9.4089,-12.14117 h 5.2577 v -8.42466 c 0,-24.79506 -14.0486,-40.19716 -36.6191,-40.14713 -16.3259,0.0362 -30.7325,8.53713 -41.1878,24.30381 -13.5281,20.40054 -19.2252,42.61153 -22.2241,86.64467 -0.7633,11.2071 -1.9246,23.2071 -2.5808,26.6666 -7.381,38.9139 -37.7849,68.8477 -86.0548,84.7242 -27.4334,9.0232 -46.749,12.1452 -108.66669,17.5642 -93.56837,8.189 -126.14294,15.6661 -175.00123,40.1694 -44.56962,22.3525 -71.09268,43.1207 -130.99875,102.5749 -43.11934,42.7941 -63.72938,61.3942 -89.39245,80.6749 -62.99019,47.3245 -122.55811,71.921 -189.94086,78.4295 -19.13855,1.8486 -30.66667,2.6512 -30.66667,2.1352 z m 901.32875,-236.6465 c 2.1168,-1.1329 79.4092,-113.8774 83.8076,-122.2481 2.2398,-4.2627 1.8828,-7.6131 -1.2332,-11.5745 -2.7205,-3.4586 -3.0207,-3.5132 -19.3333,-3.5132 -14.3452,0 -16.5699,-0.2883 -16.5699,-2.1473 0,-1.181 3.9,-17.3373 8.6667,-35.9029 4.7666,-18.5655 8.6666,-35.25565 8.6666,-37.08918 0,-3.95155 -5.6051,-8.86058 -10.1171,-8.86058 -1.6999,0 -4.5969,0.68626 -6.4378,1.52501 -4.596,2.09408 -83.4451,119.74895 -83.4451,124.51285 0,1.8792 1.4728,4.8894 3.2728,6.6894 3.1287,3.1288 4.0124,3.2727 20.0898,3.2727 15.382,0 16.7601,0.1992 16.149,2.3334 -1.547,5.4023 -15.5275,57.6997 -17.522,65.5451 -2.3093,9.0838 -1.9446,13.3094 1.441,16.695 2.3659,2.3658 8.8353,2.7583 12.5649,0.7623 z m 1.3379,-24.3382 c 0,-0.4291 4.2,-16.478 9.3333,-35.6642 5.1333,-19.1863 9.3333,-35.7195 9.3333,-36.7407 0,-1.4879 -3.9812,-1.9296 -20.0495,-2.2246 l -20.0495,-0.3681 33.7162,-50.2024 c 18.5439,-27.6113 33.8692,-50.0582 34.0564,-49.882 0.2854,0.2689 -15.7165,64.6985 -17.8118,71.7168 -0.6257,2.0959 1.1258,2.3316 19.8197,2.6667 l 20.5061,0.3676 -33.4271,49.583 c -32.4526,48.1374 -35.4271,52.3984 -35.4271,50.7479 z m -1055.29529,253.8633 -9.29531,-0.8609 15.96198,-3.1628 c 51.71768,-10.2476 105.01248,-34.2943 149.2953,-67.3624 19.2172,-14.3504 48.0037,-42.8495 62.40595,-61.7828 36.51329,-48.0007 61.14773,-108.7132 69.12399,-170.3586 4.65396,-35.9687 2.29069,-78.3453 -6.2226,-111.5798 -5.65246,-22.06633 -13.73251,-43.55733 -24.85047,-66.09631 -12.15907,-24.64958 -24.57013,-44.89009 -60.7009,-98.99372 -27.64764,-41.40064 -35.48197,-53.82943 -49.03227,-77.78735 -31.94971,-56.4894 -44.5479,-108.81276 -37.45093,-155.54282 5.31043,-34.96659 19.00301,-63.15498 42.63625,-87.77363 28.20716,-29.38328 67.47031,-49.01679 112.51138,-56.26121 5.36455,-0.86284 9.45883,-1.8637 9.0984,-2.22413 -0.36044,-0.36044 -6.24962,-1.49537 -13.08707,-2.52208 -47.03504,-7.06278 -98.85484,9.06411 -132.83696,41.34031 -27.03388,25.67677 -41.77105,57.65985 -44.59158,96.77407 -0.31236,4.33163 -0.64339,3.891 -4.61087,-6.13739 -18.97658,-47.96606 -15.04685,-88.53932 11.89305,-122.79213 8.82972,-11.22657 22.71062,-23.84937 36.00134,-32.73836 6.07565,-4.06346 24.84663,-14.44774 41.71329,-23.07618 16.86667,-8.62844 32.46667,-16.90284 34.66667,-18.38756 15.5801,-10.5146 28.81592,-26.58626 34.20617,-41.53503 3.59522,-9.97061 5.18352,-32.66605 2.2862,-32.66772 -4.67736,-0.003 -18.31356,-8.05327 -23.36917,-13.79674 -6.55222,-7.44372 -8.96395,-15.21265 -8.22129,-26.48329 1.48154,-22.48363 18.32536,-39.80154 44.74179,-46.00113 9.09447,-2.13435 9.62468,-2.4738 11.93675,-7.64224 3.74617,-8.37425 18.30889,-22.27249 28.61352,-27.30792 29.82391,-14.57367 65.46512,-3.52169 79.22125,24.56571 3.57854,7.30668 3.9181,9.21331 3.9181,22 0,12.90304 -0.32385,14.67907 -4.13317,22.66667 -2.27325,4.76666 -6.99413,11.63349 -10.49086,15.25962 -4.52263,4.69 -7.12184,8.9207 -9.00518,14.65765 -3.86891,11.78529 -7.12288,17.51919 -13.42596,23.65819 -8.50968,8.28818 -13.73683,11.24358 -27.95133,15.80355 -15.1047,4.84555 -19.64535,8.54065 -23.03481,18.74538 -3.09852,9.32876 -2.16901,20.02677 2.58417,29.7419 5.22501,10.67955 16.86612,19.9514 37.29546,29.7049 53.48822,25.53668 90.7394,46.56336 139.21374,78.58013 54.12332,35.74784 90.34145,63.80294 117.64987,91.1333 17.07493,17.08866 25.55512,27.55944 40.83188,50.41652 13.67636,20.46257 25.62898,47.27618 24.25484,54.4115 -0.3564,1.85067 -2.37305,0.21506 -8.43373,-6.8402 -17.17566,-19.99425 -33.87903,-34.52615 -36.58035,-31.82483 -0.33938,0.33938 -0.46562,5.86645 -0.28054,12.28238 0.38105,13.20939 -1.36775,20.19791 -4.42035,17.66448 -2.35947,-1.95819 -8.84708,-19.58108 -15.3528,-41.70427 -5.45745,-18.55844 -9.12262,-25.02857 -18.61456,-32.86033 -9.98698,-8.24022 -17.16241,-12.70455 -44.97873,-27.98439 -14.55351,-7.99442 -36.96093,-20.70498 -49.79426,-28.24569 -32.49128,-19.09147 -73.6912,-39.73647 -92.61288,-46.40768 -21.12259,-7.44718 -36.30694,-10.03465 -53.38711,-9.09735 -51.37829,2.81946 -88.72315,38.27795 -104.16695,98.90522 -4.70352,18.46451 -5.81339,47.87258 -2.54778,67.50818 4.90144,29.47155 18.30305,61.99784 38.01252,92.25805 15.5168,23.82314 29.96223,41.87422 81.27938,101.56709 23.53127,27.37192 44.66476,54.7569 53.5737,69.42131 30.82271,50.73522 43.03275,98.59747 38.58389,151.24537 -7.99195,94.5766 -65.60888,186.7824 -162.02067,259.2857 -60.23263,45.296 -132.6589,75.6778 -200.62083,84.1576 -17.82308,2.2239 -53.84945,3.3381 -67.38856,2.0842 z m -81.527295,-18.0822 c 30.984945,-18.9519 66.726115,-50.0483 88.246755,-76.7787 53.32908,-66.239 90.86334,-153.1784 111.79552,-258.9484 20.16898,-101.91347 20.13203,-199.65953 -0.11356,-300.38488 -0.4422,-2.2 -0.47402,-3.7 -0.0707,-3.33333 0.4033,0.36667 6.37541,9.96667 13.27136,21.33333 6.89595,11.36667 17.84742,29.06667 24.33661,39.33333 66.28561,104.87172 85.26657,151.04608 92.58622,225.23155 6.0459,61.2758 -9.40364,132.7905 -40.84031,189.0464 -31.44051,56.2629 -82.08211,103.9893 -142.38927,134.1926 -44.4777,22.2756 -86.21346,33.2284 -131.33332,34.4659 l -23.333334,0.64 z M 547.17857,1176.5581 c 0.53341,-1.407 4.24522,-11.0802 8.24847,-21.496 15.02762,-39.0995 21.00233,-67.5579 21.07756,-100.3955 0.0562,-24.5241 -2.61507,-41.8971 -9.84294,-64.01521 C 553.63095,950.77588 534.13309,923.40264 470.90198,856.21336 425.3537,807.81383 409.55413,788.95584 390.66024,760.43875 371.23648,731.12192 358.40906,703.77039 351.35999,676.64 c -1.84801,-7.11258 -3.36001,-13.5631 -3.36001,-14.33447 0,-0.77137 2.92653,4.58196 6.50341,11.8963 17.84324,36.48754 45.26738,72.04396 80.82992,104.79903 18.72061,17.24271 59.54023,50.39146 99.99999,81.20785 13.93333,10.6124 36.58032,27.86225 50.32664,38.33301 33.86751,25.79732 57.58355,46.41173 93.80606,81.53792 16.79367,16.2854 38.03396,35.64456 47.20062,43.02036 31.21761,25.1188 66.5511,46.18 95.33333,56.8252 5.86666,2.1698 10.06666,3.9594 9.33333,3.9769 -0.73333,0.017 -12.73333,-1.4638 -26.66666,-3.2918 -69.52797,-9.1218 -116.31801,-4.2417 -160.34568,16.7239 -29.81059,14.1955 -53.66944,33.2128 -86.01094,68.5573 -6.65569,7.2737 -11.66483,12.0737 -11.13143,10.6666 z M 949.9999,878.64449 c -11.7333,-0.52254 -26.00212,-1.03133 -31.70847,-1.13064 -8.25976,-0.14375 -10.54564,-0.62479 -11.21123,-2.35929 -1.12659,-2.93583 19.34922,-44.20967 23.20182,-46.76876 3.90698,-2.59522 71.80298,-5.50078 74.13138,-3.17239 1.7824,1.78243 0.5215,5.30168 -11.031,30.78654 -4.4877,9.9 -9.1847,19.00786 -10.4377,20.23969 -3.1656,3.11221 -8.4309,3.49656 -32.9448,2.40485 z M 846.66661,875.0492 c -20.88834,-0.39261 -25.33333,-0.96116 -25.33333,-3.24036 0,-2.67128 23.27995,-40.03835 25.77896,-41.37827 3.50138,-1.87737 63.7908,-3.88594 65.83584,-2.19335 1.21868,1.00864 -0.84459,6.24708 -8.41086,21.35441 -13.16025,26.27665 -13.38351,26.48884 -27.47667,26.11464 -6.08333,-0.16153 -19.7606,-0.45721 -30.39394,-0.65707 z m -75.99999,-2.59904 c -21.02922,-0.5064 -24.0036,-1.01999 -23.98979,-4.14228 0.0109,-2.46159 19.17554,-29.96644 23.77072,-34.1154 2.38982,-2.15776 6.28194,-2.61376 30.43663,-3.56593 15.23302,-0.60049 28.16576,-0.80171 28.73942,-0.44717 0.57366,0.35454 1.04301,1.45303 1.04301,2.4411 0,2.19833 -19.18666,33.69623 -22.72979,37.3145 -2.87431,2.93526 -7.33234,3.23611 -37.2702,2.51518 z m 9.33333,-52.42374 c 0,-2.41445 21.57251,-32.12171 24.91727,-34.31327 2.6244,-1.71958 15.676,-3.5244 47.62676,-6.58603 11.4529,-1.09745 11.51529,-1.64224 -2.43096,21.22533 -8.56167,14.03851 -10.96443,17.03968 -14.51959,18.13568 -6.82591,2.10433 -55.59348,3.45375 -55.59348,1.53829 z m 74.66666,-3.76159 c 0,-3.78413 18.67984,-34.85219 22.66667,-37.6989 4.2029,-3.00098 62.24222,-10.19043 64.44922,-7.98345 0.928,0.92803 -1.8591,7.64454 -8.7376,21.05675 -8.09573,15.78548 -10.93288,20.12916 -14.29548,21.88641 -3.2048,1.67479 -9.76912,2.39469 -27.80567,3.04944 -12.98576,0.47139 -26.46047,1.19114 -29.9438,1.59943 -5.68161,0.66595 -6.33334,0.46944 -6.33334,-1.90968 z M 936.5607,813.162 c -1.3267,-2.14674 18.8769,-42.06938 22.4701,-44.40117 3.1543,-2.04692 70.5854,-10.41358 73.8456,-9.16254 0.9846,0.37783 1.7902,1.32162 1.7902,2.09729 0,3.2736 -19.1946,43.66881 -22.0044,46.30849 -2.8658,2.69228 -5.3876,3.0101 -37.5339,4.73025 -18.9539,1.01423 -35.1763,1.86391 -36.0497,1.88818 -0.8734,0.0243 -2.0064,-0.63296 -2.5179,-1.4605 z M 813.76105,772.52486 c -0.81716,-2.12949 17.54,-29.33882 21.57958,-31.98566 2.46731,-1.61664 47.09044,-11.1644 52.32598,-11.19588 0.91667,-0.006 1.66667,0.67088 1.66667,1.5031 0,2.45965 -17.0539,31.09285 -20.37985,34.21742 -2.55915,2.40419 -6.62215,3.30748 -25.00457,5.55899 -12.0719,1.47859 -23.65449,2.89756 -25.73908,3.15327 -2.23399,0.27404 -4.06057,-0.2397 -4.44873,-1.25124 z m 70.23889,-8.74167 c 0,-2.44754 16.22735,-30.67501 19.96325,-34.72609 3.05887,-3.31692 6.10505,-4.19101 32.98671,-9.46539 16.5647,-3.25013 30.3731,-5.34287 31.3333,-4.74874 2.7244,1.68579 -16.385,39.11948 -21.2524,41.63155 -2.0336,1.04958 -16.06639,3.47218 -31.1839,5.38355 -31.50671,3.98353 -31.84696,4.0041 -31.84696,1.92512 z m 80.64766,-9.35193 c -0.9263,-2.41397 18.6155,-40.99748 21.946,-43.33021 3.1201,-2.1854 70.2111,-15.58924 72.888,-14.562 1.0184,0.3908 1.8517,1.58228 1.8517,2.64772 0,2.70195 -16.404,38.93742 -19.4798,43.02976 -2.9365,3.90696 -4.2172,4.19145 -40.5202,9.00085 -14.3,1.89446 -28.2487,3.79806 -30.9971,4.23022 -3.5437,0.55723 -5.1982,0.26164 -5.6886,-1.01634 z m -63.47772,-96.80328 c -17.58521,-6.54712 -26.50327,-19.06556 -26.50327,-37.20314 0,-7.18821 2.60851,-17.75821 4.38245,-17.75821 0.28519,0 0.61955,2.67078 0.74302,5.93506 0.61416,16.23707 12.19182,27.66494 28.02756,27.66494 9.17395,0 14.11919,-2.23381 20.14917,-9.10158 6.41279,-7.30373 8.46159,-13.16885 7.66589,-21.94454 -0.7629,-8.41305 -3.1171,-13.68621 -9.20633,-20.62151 -12.77338,-14.54807 -34.33874,-16.31435 -71.56492,-5.86143 -38.5361,10.82074 -80.31481,10.32001 -105.53016,-1.26481 l -6,-2.75661 6.66666,0.97524 c 3.66667,0.53639 15.36667,0.95801 26,0.93696 24.58228,-0.0487 33.14151,-1.84342 73.45406,-15.40217 35.19546,-11.83766 45.1271,-13.72215 62.134,-11.78969 32.13389,3.6513 54.15369,23.99255 56.05129,51.77859 1.6452,24.09146 -9.5944,44.21661 -30.1044,53.90335 -11.00903,5.19952 -26.30472,6.25507 -36.36502,2.50955 z m 103.61772,-74.31481 c -11.5259,-4.39446 -20.9157,-15.96114 -22.7189,-27.98597 -2.4816,-16.54885 9.6937,-31.28313 25.8804,-31.31979 2.6956,-0.006 2.2206,0.52903 -2.6559,2.99256 -8.4003,4.2437 -12.36,10.58916 -11.6132,18.61046 1.5644,16.80499 20.8652,25.00072 35.7223,15.16881 17.0852,-11.30648 13.5802,-38.82684 -6.5772,-51.64158 -11.6371,-7.39812 -22.4244,-9.7505 -44.8252,-9.77505 -30.3333,-0.0332 -41.3293,3.11451 -96.66662,27.67184 -16.5,7.32229 -36.3,15.67029 -44,18.55111 -28.74042,10.75272 -55.41646,15.28133 -82.54872,14.01373 -45.27014,-2.11498 -79.87274,-15.79368 -136.7846,-54.07211 -16.86666,-11.34437 -34.86666,-22.97653 -40,-25.84924 -21.7687,-12.18217 5.62814,-1.10683 55.06017,22.25841 30.70637,14.5141 43.96753,19.57311 64.55959,24.62888 23.98664,5.8892 48.7065,8.60486 69.71357,7.65856 32.14905,-1.44821 52.31707,-6.7796 103.99999,-27.49223 56.18007,-22.51494 70.83612,-26.54881 100.66662,-27.70712 20.3612,-0.79062 31.91,0.96725 48.3864,7.36509 24.2814,9.42848 38.4549,24.97298 42.4434,46.54898 3.4954,18.90816 -5.9292,38.39509 -23.0917,47.74613 -5.9551,3.24463 -8.8606,3.9131 -18.4047,4.23436 -7.6509,0.25753 -13.027,-0.26424 -16.5457,-1.60583 z m -269.45431,-68.4477 c -4.65701,-0.81179 -3.8308,-1.05519 6.51531,-1.91936 44.77615,-3.73998 96.17991,-24.25325 129.48468,-51.67237 25.51404,-21.00517 38.54449,-41.2972 52.61772,-81.94043 3.80889,-11 10.1537,-26.6 14.0995,-34.66666 17.9284,-36.65198 47.4459,-60.92097 85.1717,-70.02727 11.8659,-2.86419 36.7787,-5.00711 36.7759,-3.16333 -10e-4,0.65483 -3.751,2.28755 -8.3333,3.62826 -19.901,5.8227 -40.5778,17.90241 -56.1509,32.80419 -18.6195,17.8168 -28.7311,37.65884 -41.4947,81.42481 -13.3842,45.89449 -37.79899,75.37099 -82.01925,99.02384 -19.34682,10.34836 -46.16047,19.08001 -75.33333,24.53168 -11.55617,2.15956 -52.68079,3.48491 -61.33333,1.97664 z m -51.33333,-20.82119 c -16.81341,-2.7638 -39.03629,-9.92897 -76.78239,-24.75643 -36.3168,-14.266 -48.53942,-18.12114 -65.2176,-20.57027 l -10.66667,-1.56636 8.99998,-0.94609 c 18.95267,-1.99232 41.29287,1.98415 101.00001,17.97758 52.59613,14.08865 96.68383,11.50749 127.95958,-7.49152 9.70348,-5.89455 21.53995,-18.70656 26.33311,-28.50344 11.73281,-23.98098 -2.77143,-51.33155 -27.06766,-51.04135 -21.34926,0.25501 -33.94098,20.59568 -25.87855,41.80422 l 2.67982,7.04936 -6.44686,-6.83965 c -15.34334,-16.27818 -14.22629,-41.18017 2.60214,-58.0086 10.68364,-10.68364 29.76879,-16.32877 45.38578,-13.42449 23.94562,4.45314 40.67878,21.05887 45.86283,45.51354 2.34272,11.05128 2.33199,15.85011 -0.0607,27.14167 -6.86,32.37411 -38.39837,59.8345 -81.76178,71.18982 -16.22206,4.24797 -48.8151,5.45157 -66.94108,2.47201 z m 144.15877,-32.37764 c 5.41527,-5.68333 12.15025,-13.81842 14.96662,-18.07798 7.65993,-11.58511 15.43877,-29.09884 17.74459,-39.95122 2.7921,-13.14107 1.81629,-32.29773 -2.17801,-42.75769 -4.00309,-10.48298 -12.91092,-23.21429 -20.11794,-28.75309 l -5.90738,-4.53998 6.63606,0.8893 c 16.82881,2.25525 33.54819,14.78155 41.6761,31.22408 4.93014,9.97355 5.02117,10.43701 5.02117,25.56215 0,11.48009 -0.6302,17.27263 -2.47376,22.73777 -7.77296,23.04246 -30.43337,47.30773 -56.48191,60.48208 -3.82562,1.93485 -7.35523,3.51791 -7.84357,3.51791 -0.48835,0 3.54277,-4.65 8.95803,-10.33333 z m 437.17457,-10.05109 c -36.6023,-21.16925 -101.3476,-59.04494 -107.0966,-62.65097 -6.3269,-3.96855 -6.5037,-3.99788 -11.0452,-1.83219 -5.8265,2.77846 -10.2255,2.78449 -16.047,0.022 -4.4545,-2.11382 -4.6934,-2.08394 -7.9923,1 -1.8703,1.74841 -6.6123,8.04842 -10.538,14.00003 -3.9256,5.9516 -9.062,12.44055 -11.4144,14.41989 -10.9668,9.228 -59.3192,28.99835 -91.6792,37.48588 -22.0289,5.77784 -23.29,3.55063 -4.8323,-8.53423 11.6472,-7.62585 97.8188,-59.54451 110.9783,-66.86479 4.1627,-2.31561 5.6667,-3.98311 5.6667,-6.28286 0,-5.186 3.504,-11.93182 7.8774,-15.16519 2.2674,-1.67637 4.1226,-3.97387 4.1226,-5.10556 0,-1.13168 -3.4431,-9.26884 -7.6512,-18.08259 l -7.6512,-16.02498 0.2352,-13.33333 c 0.5603,-31.7632 15.4436,-101.10073 23.2098,-108.12911 2.4738,-2.23873 2.524,-0.69389 2.524,77.63498 v 79.91917 l 4.0305,2.38084 c 5.2996,3.13057 7.9652,7.39183 8.5248,13.62784 0.4002,4.46062 1.0316,5.28317 5.1492,6.70871 2.5811,0.89362 10.9035,2.05528 18.4942,2.58148 15.5309,1.07661 19.698,2.69826 35.1347,13.6727 33.4221,23.76094 76.6604,67.74089 65.6666,66.79302 -0.9166,-0.079 -7.9666,-3.78736 -15.6666,-8.24073 z M 246.63891,407.94814 c -2.76771,-5.1715 -14.92061,-39.71078 -19.41872,-55.18916 -2.54954,-8.77318 -6.22825,-24.08298 -8.1749,-34.02178 -3.23206,-16.50151 -3.54687,-20.96483 -3.62568,-51.40388 -0.078,-30.13462 0.21841,-34.80474 3.08894,-48.66667 10.04298,-48.49807 36.36755,-101.54841 71.93098,-144.958216 18.49179,-22.57163 61.54018,-64.839814 63.76786,-62.612131 0.44596,0.445955 -0.73829,5.761709 -2.63165,11.812787 -1.89337,6.051078 -3.25549,11.188956 -3.02694,11.417507 0.22855,0.22855 6.86491,-3.835085 14.74747,-9.030302 7.88256,-5.195217 14.67256,-9.105216 15.08889,-8.688887 1.38849,1.38849 -6.95986,17.166533 -14.46693,27.341904 -9.31999,12.632675 -17.13968,19.535789 -33.58625,29.649464 -15.34546,9.436553 -20.43075,14.861589 -30.51238,32.550914 -28.00209,49.13273 -41.63737,100.90603 -39.29295,149.19578 2.00763,41.35246 9.98568,72.0148 29.57695,113.67413 l 7.06333,15.01962 -6.91681,5.19344 c -7.73552,5.80817 -27.30544,16.17995 -36.33281,19.25589 -5.58062,1.90151 -5.9877,1.87128 -7.2784,-0.54041 z"
       id="path1" />
  </g>
</svg>
